
<svg xmlns="http://www.w3.org/2000/svg" version="1.1" xmlns:xlink="http://www.w3.org/1999/xlink" width="512" height="512" x="0" y="0" viewBox="0 0 512 512" style="enable-background:new 0 0 512 512" xml:space="preserve" class=""><g><g fill="gray"><path d="m346.579 221.99-11.314 101.823-22.627 11.314-22.628-56.569-56.568-56.568-56.569-22.628 11.314-22.627 101.823-11.314zM233.442 335.127l-28.285 107.48-39.598 39.598-28.284-50.911-56.569-56.569-50.911-28.284 39.598-39.598 107.48-28.285zM41.059 436.912l37.915-37.915 33.936 33.936-37.915 37.915z" fill="" opacity="1"></path></g><path fill="#4e4e4f" d="M120.3 448.264 396.47 172.1A378.888 378.888 0 0 0 488 24a378.888 378.888 0 0 0-148.1 91.53L63.736 391.7v22.627l33.941 33.941z" opacity="1" data-original="#4e4e4f" class=""></path><rect width="135.999" height="16.001" x="89.075" y="346.925" fill="#0093b9" rx="8.001" transform="rotate(-45 157.022 354.98)" opacity="1" data-original="#0093b9" class=""></rect><rect width="95.999" height="16.001" x="236.353" y="219.646" fill="#0093b9" rx="8.001" transform="rotate(-45 284.333 227.716)" opacity="1" data-original="#0093b9" class=""></rect><path fill="#0093b9" d="m312.589 142.818 22.624-22.624 56.56 56.56-22.624 22.624z" opacity="1" data-original="#0093b9" class=""></path></g></svg>